<svg width="19" height="18" viewBox="0 0 19 18" fill="none" xmlns="http://www.w3.org/2000/svg">
<path fill-rule="evenodd" clip-rule="evenodd" d="M17.89 9.20456C17.89 8.56637 17.8327 7.95274 17.7264 7.36365H9.25V10.845H14.0936C13.885 11.97 13.2509 12.9232 12.2977 13.5614V15.8196H15.2064C16.9082 14.2527 17.89 11.9455 17.89 9.20456Z" fill="#4285F4"/>
<path fill-rule="evenodd" clip-rule="evenodd" d="M9.25 18C11.68 18 13.7173 17.1941 15.2064 15.8196L12.2977 13.5614C11.4918 14.1014 10.4609 14.4205 9.25 14.4205C6.90591 14.4205 4.92182 12.8373 4.21409 10.71H1.20728V13.0418C2.68818 15.9832 5.73182 18 9.25 18Z" fill="#34A853"/>
<path fill-rule="evenodd" clip-rule="evenodd" d="M4.21409 10.71C4.03409 10.17 3.93182 9.59319 3.93182 9.00001C3.93182 8.40683 4.03409 7.83001 4.21409 7.29001V4.95819H1.20727C0.597727 6.17319 0.25 7.54774 0.25 9.00001C0.25 10.4523 0.597727 11.8268 1.20727 13.0418L4.21409 10.71Z" fill="#FBBC05"/>
<path fill-rule="evenodd" clip-rule="evenodd" d="M9.25 3.57955C10.5714 3.57955 11.7577 4.03364 12.6905 4.92545L15.2718 2.34409C13.7132 0.891818 11.6759 0 9.25 0C5.73182 0 2.68818 2.01682 1.20728 4.95818L4.21409 7.29C4.92182 5.16273 6.90591 3.57955 9.25 3.57955Z" fill="#EA4335"/>
</svg>
